<?xml version="1.0" encoding="UTF-8" standalone="no"?>
<!-- Created with Inkscape (http://www.inkscape.org/) -->

<svg
   xmlns:dc="http://purl.org/dc/elements/1.1/"
   xmlns:cc="http://creativecommons.org/ns#"
   xmlns:rdf="http://www.w3.org/1999/02/22-rdf-syntax-ns#"
   xmlns:svg="http://www.w3.org/2000/svg"
   xmlns="http://www.w3.org/2000/svg"
   xmlns:sodipodi="http://sodipodi.sourceforge.net/DTD/sodipodi-0.dtd"
   xmlns:inkscape="http://www.inkscape.org/namespaces/inkscape"
   width="589.99017"
   height="274.73117"
   id="svg3384"
   version="1.1"
   inkscape:version="0.48.2 r9819"
   sodipodi:docname="logo.svg">
  <defs
     id="defs3386" />
  <sodipodi:namedview
     id="base"
     pagecolor="#ffffff"
     bordercolor="#666666"
     borderopacity="1.0"
     inkscape:pageopacity="0.0"
     inkscape:pageshadow="2"
     inkscape:zoom="1"
     inkscape:cx="302.59963"
     inkscape:cy="158.05612"
     inkscape:document-units="px"
     inkscape:current-layer="layer1"
     showgrid="false"
     inkscape:window-width="1440"
     inkscape:window-height="825"
     inkscape:window-x="0"
     inkscape:window-y="24"
     inkscape:window-maximized="1"
     fit-margin-top="0"
     fit-margin-left="0"
     fit-margin-right="0"
     fit-margin-bottom="0" />
  <metadata
     id="metadata3389">
    <rdf:RDF>
      <cc:Work
         rdf:about="">
        <dc:format>image/svg+xml</dc:format>
        <dc:type
           rdf:resource="http://purl.org/dc/dcmitype/StillImage" />
        <dc:title></dc:title>
      </cc:Work>
    </rdf:RDF>
  </metadata>
  <g
     inkscape:label="Calque 1"
     inkscape:groupmode="layer"
     id="layer1"
     transform="translate(-25.470133,-178.8459)">
    <path
       style="fill:#0086a9;fill-opacity:1;stroke:none"
       d="M 110.94522,321.61765 C 88.362853,382.6656 27.817762,445.72829 27.817762,445.72829 c 0,0 -10.149726,15.12143 11.759012,3.3866 C 216.26277,354.47756 250.63946,339.07139 253.68471,321.61765 l -23.92652,0 c -12.24429,23.03753 -150.48303,88.73956 -150.48303,88.73956 24.79348,-36.93174 39.66181,-66.18226 47.72545,-88.73956 z"
       id="path4271"
       inkscape:connector-curvature="0"
       sodipodi:nodetypes="ccsccccc" />
    <text
       inkscape:export-ydpi="120"
       inkscape:export-xdpi="120"
       inkscape:export-filename="/home/fabs/revolu/Documents/Fabien/Illyse/design/propositions2/logo_illyse_proposition.png"
       xml:space="preserve"
       style="font-size:27.94677925px;font-style:normal;font-variant:normal;font-weight:bold;font-stretch:normal;line-height:125%;letter-spacing:0px;word-spacing:0px;fill:#b6b6b6;fill-opacity:1;stroke:none;font-family:Verdana;-inkscape-font-specification:Verdana Bold"
       x="398.09702"
       y="434.9126"
       id="text3358"
       sodipodi:linespacing="125%"><tspan
         sodipodi:role="line"
         id="tspan3360"
         x="398.09702"
         y="434.9126">Internet</tspan></text>
    <text
       inkscape:export-ydpi="120"
       inkscape:export-xdpi="120"
       inkscape:export-filename="/home/fabs/revolu/Documents/Fabien/Illyse/design/propositions2/logo_illyse_proposition.png"
       sodipodi:linespacing="125%"
       id="text3362"
       y="434.9126"
       x="537.24207"
       style="font-size:27.94677925px;font-style:normal;font-variant:normal;font-weight:bold;font-stretch:normal;line-height:125%;letter-spacing:0px;word-spacing:0px;fill:#b6b6b6;fill-opacity:1;stroke:none;font-family:Verdana;-inkscape-font-specification:Verdana Bold"
       xml:space="preserve"><tspan
         y="434.9126"
         x="537.24207"
         id="tspan3364"
         sodipodi:role="line">Libre</tspan></text>
    <g
       inkscape:export-ydpi="120"
       inkscape:export-xdpi="120"
       inkscape:export-filename="/home/fabs/revolu/Documents/Fabien/Illyse/design/propositions2/logo_illyse_proposition.png"
       style="fill:#ff6600;fill-opacity:1"
       id="g3368"
       transform="matrix(2.0591019,0,0,2.0591019,-1612.7188,-1114.1465)">
      <path
         inkscape:connector-curvature="0"
         d="m 863.40519,685.56031 -17.88882,0 c 0,0 0.51531,17.7417 0.51531,25.7659 0,11.11613 -0.36809,25.47125 -0.36809,25.47125 l 17.07904,0 c 0,-9.42284 -0.22085,-18.40412 -0.22085,-25.25038 0,-8.09783 0.88341,-25.98677 0.88341,-25.98677"
         style="font-size:43.69723892px;font-style:normal;font-variant:normal;font-weight:bold;font-stretch:normal;line-height:125%;letter-spacing:0px;word-spacing:0px;fill:#ff6600;fill-opacity:1;stroke:none;font-family:MEgalopolis Extra;-inkscape-font-specification:MEgalopolis Extra Bold Italic"
         id="path3370" />
      <path
         inkscape:connector-curvature="0"
         d="m 889.70698,724.72442 0.14725,-39.16411 -17.37349,0 c 0,0 0.36807,14.35529 0.36807,25.54504 0,7.95058 -0.58893,25.69211 -0.58893,25.69211 l 35.92488,0 c 0.14724,-5.37401 1.17785,-12.66201 1.17785,-12.66201 l -19.65561,0.58897"
         style="font-size:43.69723892px;font-style:normal;font-variant:normal;font-weight:bold;font-stretch:normal;line-height:125%;letter-spacing:0px;word-spacing:0px;fill:#ff6600;fill-opacity:1;stroke:none;font-family:MEgalopolis Extra;-inkscape-font-specification:MEgalopolis Extra Bold Italic"
         id="path3372" />
      <path
         inkscape:connector-curvature="0"
         d="m 931.54762,724.72442 0.14724,-39.16411 -17.3735,0 c 0,0 0.36809,14.35529 0.36809,25.54504 0,7.95058 -0.58894,25.69211 -0.58894,25.69211 l 35.92486,0 c 0.14725,-5.37401 1.17788,-12.66201 1.17788,-12.66201 l -19.65563,0.58897"
         style="font-size:43.69723892px;font-style:normal;font-variant:normal;font-weight:bold;font-stretch:normal;line-height:125%;letter-spacing:0px;word-spacing:0px;fill:#ff6600;fill-opacity:1;stroke:none;font-family:MEgalopolis Extra;-inkscape-font-specification:MEgalopolis Extra Bold Italic"
         id="path3374" />
      <path
         inkscape:connector-curvature="0"
         d="m 976.89886,696.8973 c 1.10425,13.76632 -0.22085,21.12793 -2.50295,27.31178 0,-24.44072 -25.8394,-28.63679 -25.8394,-28.63679 l -3.68084,17.44704 c 0,0 16.26925,3.16554 16.26925,17.29997 0,13.6189 -11.99951,19.36102 -29.8883,19.36102 l 3.75443,10.37991 c 30.91893,0 54.47625,-26.7228 54.47625,-63.16293 l -12.58844,0"
         style="font-size:43.69723892px;font-style:normal;font-variant:normal;font-weight:bold;font-stretch:normal;line-height:125%;letter-spacing:0px;word-spacing:0px;fill:#ff6600;fill-opacity:1;stroke:none;font-family:MEgalopolis Extra;-inkscape-font-specification:MEgalopolis Extra Bold Italic"
         id="path3376" />
      <path
         inkscape:connector-curvature="0"
         d="m 1009.1038,699.47388 c 0,-3.38641 2.0613,-4.49056 5.0059,-4.49056 5.5212,0 11.8523,3.46003 11.8523,3.46003 l 3.3863,-9.86474 c 0,0 -6.6991,-4.34331 -15.6067,-4.34331 -11.4841,0 -20.8334,6.69902 -20.8334,15.97479 0,16.41651 21.2015,16.56375 21.2015,23.48364 0,2.20846 -1.3251,3.68089 -5.0795,3.68089 -6.0366,0 -12.7357,-3.97538 -12.7357,-3.97538 l -3.5336,10.23267 c 0,0 6.1838,4.49073 16.4901,4.49073 11.4842,0 21.128,-5.44763 21.128,-15.60668 0,-15.97479 -21.2752,-17.59445 -21.2752,-23.04208"
         style="font-size:43.69723892px;font-style:normal;font-variant:normal;font-weight:bold;font-stretch:normal;line-height:125%;letter-spacing:0px;word-spacing:0px;fill:#ff6600;fill-opacity:1;stroke:none;font-family:MEgalopolis Extra;-inkscape-font-specification:MEgalopolis Extra Bold Italic"
         id="path3378" />
      <path
         style="font-size:43.69723892px;font-style:normal;font-variant:normal;font-weight:bold;font-stretch:normal;line-height:125%;letter-spacing:0px;word-spacing:0px;fill:#ff6600;fill-opacity:1;stroke:none;font-family:MEgalopolis Extra;-inkscape-font-specification:MEgalopolis Extra Bold Italic"
         d="m 1053.7557,724.87167 c 0,-0.80984 -0.074,-8.31785 -0.074,-8.31785 5.1874,-0.80326 9.3499,-0.4328 13.1555,0.13815 l -0.074,-9.98351 c -3.8311,0.5359 -7.877,0.8132 -13.082,0.55545 0,0 0.2208,-8.0109 0.2945,-10.73471 l 18.1832,0 0,-10.96889 -35.5567,0 c 0,0 0.5153,17.7417 0.5153,25.7659 0,11.11613 -0.2945,25.47125 -0.2945,25.47125 l 36.8083,0 c 0.074,-5.37401 1.1778,-12.66201 1.1778,-12.66201 l -21.0543,0.73622"
         id="path3380"
         inkscape:connector-curvature="0"
         sodipodi:nodetypes="cccccccccscccc" />
    </g>
    <path
       style="fill:#0086a9;fill-opacity:1;stroke:none"
       d="m 338.25546,178.84595 c -20.51764,-0.007 -40.852,0.6958 -60.77053,2.44587 -4.28322,0.37632 -0.0581,4.68764 11.57087,8.93684 12.32082,4.502 11.19457,6.11468 11.19457,6.11468 -62.93467,22.52458 -185.88356,129.82982 -137.06295,123.61065 63.10888,-8.03932 67.20942,-0.34001 67.2615,-0.47036 -0.0626,0.79222 -0.52943,1.95905 -1.02912,2.89919 l 24.17652,0 c 0.44702,-2.56213 0.26205,-5.42203 -0.2879,-8.35536 -1.85649,-9.90214 -18.5423,-11.38588 -28.40975,-11.1005 -45.73193,1.32239 -51.25797,2.91652 -51.92776,3.29252 76.02796,-75.99218 128.98898,-94.59132 132.07713,-96.51791 0,0 4.0711,0.0735 -2.06959,11.66494 -5.69657,10.75316 -4.74517,18.29073 -1.6933,15.33373 19.4464,-18.84171 39.79771,-36.68592 57.57208,-57.66615 -6.88863,-0.15376 -13.76257,-0.18585 -20.60177,-0.18814 z m -232.45198,62.93418 c 17.92312,21.60595 15.73805,51.04246 4.80335,80.60269 l 16.18039,0 c 26.93691,-75.35347 -20.98374,-80.60269 -20.98374,-80.60269 z"
       id="path3495"
       inkscape:connector-curvature="0"
       sodipodi:nodetypes="ssscscccssccsscscccc" />
  </g>
</svg>
